<svg id="Layer_1" data-name="Layer 1" xmlns="http://www.w3.org/2000/svg" viewBox="0 0 583.54 582.72"><defs><style>.cls-1{fill:#fff;}</style></defs><title>chess-logo</title><path class="cls-1" d="M347.16,211.28c65.88.11,102.14,24.55,127.59,57.87q24.35-4.92,40.78-19.73V220.49L406.35,96.84c-2.09-10.23,1.52-17.26,8.55-22.36h44.73V8.05h-68.4V75.79H328.09V13.31H265V64H189.32v78.27H136.7v55.9H63V153.4H15.68v46.7h48v74.32H5.82V331H65L63.7,274.42H138V331h61.16V273.1L138,274.42l-1.32-76.3h61.82v65.12h69.72V331H332v70.37H266.27V505.27H522.11V400l-173-173C341.85,221.65,342.35,216.42,347.16,211.28Z" transform="translate(-5.82 -8.05)"/><rect class="cls-1" x="197.8" y="525.99" width="385.74" height="56.73"/><rect class="cls-1" x="70.54" y="98.33" width="25.65" height="19.73"/><rect class="cls-1" x="83.36" y="348.91" width="26.14" height="19.73"/><rect class="cls-1" x="111.87" y="389.63" width="42.42" height="36.5"/><rect class="cls-1" x="182.51" y="338.05" width="41.43" height="41.93"/></svg>