<?xml version="1.0" encoding="UTF-8" standalone="no"?>
<svg
   xmlns:dc="http://purl.org/dc/elements/1.1/"
   xmlns:cc="http://creativecommons.org/ns#"
   xmlns:rdf="http://www.w3.org/1999/02/22-rdf-syntax-ns#"
   xmlns:svg="http://www.w3.org/2000/svg"
   xmlns="http://www.w3.org/2000/svg"
   xmlns:sodipodi="http://sodipodi.sourceforge.net/DTD/sodipodi-0.dtd"
   xmlns:inkscape="http://www.inkscape.org/namespaces/inkscape"
   aria-hidden="true"
   focusable="false"
   data-prefix="fas"
   data-icon="chess-bishop"
   class="svg-inline--fa fa-chess-bishop fa-w-10"
   role="img"
   viewBox="0 0 320 512"
   version="1.1"
   id="svg3755"
   sodipodi:docname="wB.svg"
   inkscape:version="0.92.4 (5da689c313, 2019-01-14)">
  <metadata
     id="metadata3761">
    <rdf:RDF>
      <cc:Work
         rdf:about="">
        <dc:format>image/svg+xml</dc:format>
        <dc:type
           rdf:resource="http://purl.org/dc/dcmitype/StillImage" />
        <dc:title></dc:title>
      </cc:Work>
    </rdf:RDF>
  </metadata>
  <defs
     id="defs3759" />
  <sodipodi:namedview
     pagecolor="#ffffff"
     bordercolor="#666666"
     borderopacity="1"
     objecttolerance="10"
     gridtolerance="10"
     guidetolerance="10"
     inkscape:pageopacity="0"
     inkscape:pageshadow="2"
     inkscape:window-width="1920"
     inkscape:window-height="1017"
     id="namedview3757"
     showgrid="false"
     inkscape:zoom="1.65625"
     inkscape:cx="61.886792"
     inkscape:cy="256"
     inkscape:window-x="-8"
     inkscape:window-y="-8"
     inkscape:window-maximized="1"
     inkscape:current-layer="svg3755" />
  <path
     fill="currentColor"
     d="M123.158 77.881C107.369 72.53 96 57.597 96 40c0-22.091 17.909-40 40-40h47.796c22.091 0 40 17.909 40 40 0 17.541-11.295 32.434-27.005 37.829 23.993 16.657 48.577 46.839 68.703 82.05L144.929 280.443a6 6 0 0 0 0 8.485l14.142 14.142a6 6 0 0 0 8.485 0L280.9 189.726c17.758 38.297 29.371 79.443 29.371 114.273 0 53.786-22.897 75.788-58.446 86.033V448H68.174v-57.97C32.631 379.784 9.739 357.781 9.739 304c0-78.029 58.281-187.766 113.419-226.119zM320 500v-24c0-6.627-5.373-12-12-12H12c-6.627 0-12 5.373-12 12v24c0 6.627 5.373 12 12 12h296c6.627 0 12-5.373 12-12z"
     id="path3753"
     style="fill:#ffffff;fill-opacity:1" />
</svg>
