<?xml version="1.0" encoding="UTF-8" standalone="no"?>
<svg
   xmlns:dc="http://purl.org/dc/elements/1.1/"
   xmlns:cc="http://creativecommons.org/ns#"
   xmlns:rdf="http://www.w3.org/1999/02/22-rdf-syntax-ns#"
   xmlns:svg="http://www.w3.org/2000/svg"
   xmlns="http://www.w3.org/2000/svg"
   xmlns:sodipodi="http://sodipodi.sourceforge.net/DTD/sodipodi-0.dtd"
   xmlns:inkscape="http://www.inkscape.org/namespaces/inkscape"
   aria-hidden="true"
   focusable="false"
   data-prefix="fas"
   data-icon="chess-king"
   class="svg-inline--fa fa-chess-king fa-w-14"
   role="img"
   viewBox="0 0 448 512"
   version="1.1"
   id="svg4580"
   sodipodi:docname="wK.svg"
   inkscape:version="0.92.4 (5da689c313, 2019-01-14)">
  <metadata
     id="metadata4586">
    <rdf:RDF>
      <cc:Work
         rdf:about="">
        <dc:format>image/svg+xml</dc:format>
        <dc:type
           rdf:resource="http://purl.org/dc/dcmitype/StillImage" />
        <dc:title></dc:title>
      </cc:Work>
    </rdf:RDF>
  </metadata>
  <defs
     id="defs4584" />
  <sodipodi:namedview
     pagecolor="#ffffff"
     bordercolor="#666666"
     borderopacity="1"
     objecttolerance="10"
     gridtolerance="10"
     guidetolerance="10"
     inkscape:pageopacity="0"
     inkscape:pageshadow="2"
     inkscape:window-width="716"
     inkscape:window-height="481"
     id="namedview4582"
     showgrid="false"
     inkscape:zoom="0.4609375"
     inkscape:cx="224"
     inkscape:cy="256"
     inkscape:window-x="0"
     inkscape:window-y="0"
     inkscape:window-maximized="0"
     inkscape:current-layer="svg4580" />
  <path
     fill="currentColor"
     d="M416 476v24c0 6.627-5.373 12-12 12H44c-6.627 0-12-5.373-12-12v-24c0-6.627 5.373-12 12-12h360c6.627 0 12 5.373 12 12zm-8.033-324H248v-48h50a6 6 0 0 0 6-6V62a6 6 0 0 0-6-6h-50V6a6 6 0 0 0-6-6h-36a6 6 0 0 0-6 6v50h-50a6 6 0 0 0-6 6v36a6 6 0 0 0 6 6h50v48H40.033c-27.574 0-46.879 27.244-37.738 53.259L87.582 448h272.836l85.287-242.741C454.846 179.244 435.541 152 407.967 152z"
     id="path4578"
     style="fill:#ffffff" />
</svg>
