<?xml version="1.0" encoding="UTF-8" standalone="no"?>
<svg
   xmlns:dc="http://purl.org/dc/elements/1.1/"
   xmlns:cc="http://creativecommons.org/ns#"
   xmlns:rdf="http://www.w3.org/1999/02/22-rdf-syntax-ns#"
   xmlns:svg="http://www.w3.org/2000/svg"
   xmlns="http://www.w3.org/2000/svg"
   xmlns:sodipodi="http://sodipodi.sourceforge.net/DTD/sodipodi-0.dtd"
   xmlns:inkscape="http://www.inkscape.org/namespaces/inkscape"
   aria-hidden="true"
   focusable="false"
   data-prefix="fas"
   data-icon="chess-knight"
   class="svg-inline--fa fa-chess-knight fa-w-12"
   role="img"
   viewBox="0 0 384 512"
   version="1.1"
   id="svg5143"
   sodipodi:docname="wN.svg"
   inkscape:version="0.92.4 (5da689c313, 2019-01-14)">
  <metadata
     id="metadata5149">
    <rdf:RDF>
      <cc:Work
         rdf:about="">
        <dc:format>image/svg+xml</dc:format>
        <dc:type
           rdf:resource="http://purl.org/dc/dcmitype/StillImage" />
        <dc:title></dc:title>
      </cc:Work>
    </rdf:RDF>
  </metadata>
  <defs
     id="defs5147" />
  <sodipodi:namedview
     pagecolor="#ffffff"
     bordercolor="#666666"
     borderopacity="1"
     objecttolerance="10"
     gridtolerance="10"
     guidetolerance="10"
     inkscape:pageopacity="0"
     inkscape:pageshadow="2"
     inkscape:window-width="640"
     inkscape:window-height="480"
     id="namedview5145"
     showgrid="false"
     inkscape:zoom="0.4609375"
     inkscape:cx="192"
     inkscape:cy="256"
     inkscape:window-x="0"
     inkscape:window-y="0"
     inkscape:window-maximized="0"
     inkscape:current-layer="svg5143" />
  <path
     fill="currentColor"
     d="M352 224v224H32v-46.557c0-30.302 17.12-58.003 44.223-71.554l57.243-28.622A48 48 0 0 0 160 258.334V208l-22.127 11.063a23.996 23.996 0 0 0-12.55 15.645l-11.835 47.338a12 12 0 0 1-7.185 8.231l-29.601 11.84a11.998 11.998 0 0 1-9.33-.176L7.126 275.167A12 12 0 0 1 0 264.201v-158.26c0-6.365 2.529-12.47 7.03-16.971L16 80 1.789 51.578A16.937 16.937 0 0 1 0 44c0-6.627 5.373-12 12-12h148c106.039 0 192 85.961 192 192zm20 240H12c-6.627 0-12 5.373-12 12v24c0 6.627 5.373 12 12 12h360c6.627 0 12-5.373 12-12v-24c0-6.627-5.373-12-12-12zM52 128c-11.046 0-20 8.954-20 20s8.954 20 20 20 20-8.954 20-20-8.954-20-20-20z"
     id="path5141"
     style="fill:#ffffff" />
</svg>
