<?xml version="1.0" encoding="UTF-8" standalone="no"?>
<svg
   xmlns:dc="http://purl.org/dc/elements/1.1/"
   xmlns:cc="http://creativecommons.org/ns#"
   xmlns:rdf="http://www.w3.org/1999/02/22-rdf-syntax-ns#"
   xmlns:svg="http://www.w3.org/2000/svg"
   xmlns="http://www.w3.org/2000/svg"
   xmlns:sodipodi="http://sodipodi.sourceforge.net/DTD/sodipodi-0.dtd"
   xmlns:inkscape="http://www.inkscape.org/namespaces/inkscape"
   aria-hidden="true"
   focusable="false"
   data-prefix="fas"
   data-icon="chess-pawn"
   class="svg-inline--fa fa-chess-pawn fa-w-10"
   role="img"
   viewBox="0 0 320 512"
   version="1.1"
   id="svg5163"
   sodipodi:docname="wP.svg"
   inkscape:version="0.92.4 (5da689c313, 2019-01-14)">
  <metadata
     id="metadata5169">
    <rdf:RDF>
      <cc:Work
         rdf:about="">
        <dc:format>image/svg+xml</dc:format>
        <dc:type
           rdf:resource="http://purl.org/dc/dcmitype/StillImage" />
        <dc:title></dc:title>
      </cc:Work>
    </rdf:RDF>
  </metadata>
  <defs
     id="defs5167" />
  <sodipodi:namedview
     pagecolor="#ffffff"
     bordercolor="#666666"
     borderopacity="1"
     objecttolerance="10"
     gridtolerance="10"
     guidetolerance="10"
     inkscape:pageopacity="0"
     inkscape:pageshadow="2"
     inkscape:window-width="640"
     inkscape:window-height="480"
     id="namedview5165"
     showgrid="false"
     inkscape:zoom="0.4609375"
     inkscape:cx="160"
     inkscape:cy="256"
     inkscape:window-x="0"
     inkscape:window-y="0"
     inkscape:window-maximized="0"
     inkscape:current-layer="svg5163" />
  <path
     fill="currentColor"
     d="M264 448H56s60-42.743 60-176H84c-6.627 0-12-5.373-12-12v-24c0-6.627 5.373-12 12-12h40.209C95.721 210.56 76 181.588 76 148c0-46.392 37.608-84 84-84s84 37.608 84 84c0 33.588-19.721 62.56-48.209 76H236c6.627 0 12 5.373 12 12v24c0 6.627-5.373 12-12 12h-32c0 133.257 60 176 60 176zm28 16H28c-6.627 0-12 5.373-12 12v24c0 6.627 5.373 12 12 12h264c6.627 0 12-5.373 12-12v-24c0-6.627-5.373-12-12-12z"
     id="path5161"
     style="fill:#ffffff" />
</svg>
