<?xml version="1.0" encoding="UTF-8" standalone="no"?>
<svg
   xmlns:dc="http://purl.org/dc/elements/1.1/"
   xmlns:cc="http://creativecommons.org/ns#"
   xmlns:rdf="http://www.w3.org/1999/02/22-rdf-syntax-ns#"
   xmlns:svg="http://www.w3.org/2000/svg"
   xmlns="http://www.w3.org/2000/svg"
   xmlns:sodipodi="http://sodipodi.sourceforge.net/DTD/sodipodi-0.dtd"
   xmlns:inkscape="http://www.inkscape.org/namespaces/inkscape"
   aria-hidden="true"
   focusable="false"
   data-prefix="fas"
   data-icon="chess-queen"
   class="svg-inline--fa fa-chess-queen fa-w-16"
   role="img"
   viewBox="0 0 512 512"
   version="1.1"
   id="svg5183"
   sodipodi:docname="wQ.svg"
   inkscape:version="0.92.4 (5da689c313, 2019-01-14)">
  <metadata
     id="metadata5189">
    <rdf:RDF>
      <cc:Work
         rdf:about="">
        <dc:format>image/svg+xml</dc:format>
        <dc:type
           rdf:resource="http://purl.org/dc/dcmitype/StillImage" />
        <dc:title></dc:title>
      </cc:Work>
    </rdf:RDF>
  </metadata>
  <defs
     id="defs5187" />
  <sodipodi:namedview
     pagecolor="#ffffff"
     bordercolor="#666666"
     borderopacity="1"
     objecttolerance="10"
     gridtolerance="10"
     guidetolerance="10"
     inkscape:pageopacity="0"
     inkscape:pageshadow="2"
     inkscape:window-width="640"
     inkscape:window-height="480"
     id="namedview5185"
     showgrid="false"
     inkscape:zoom="0.4609375"
     inkscape:cx="256"
     inkscape:cy="256"
     inkscape:window-x="0"
     inkscape:window-y="0"
     inkscape:window-maximized="0"
     inkscape:current-layer="svg5183" />
  <path
     fill="currentColor"
     d="M436 512H76c-6.627 0-12-5.373-12-12v-24c0-6.627 5.373-12 12-12h360c6.627 0 12 5.373 12 12v24c0 6.627-5.373 12-12 12zM255.579 0c-30.928 0-56 25.072-56 56s25.072 56 56 56 56-25.072 56-56-25.072-56-56-56zm204.568 154.634c-5.768-3.045-12.916-.932-16.082 4.77-8.616 15.516-22.747 37.801-44.065 37.801-28.714 0-30.625-19.804-31.686-57.542-.183-6.492-5.501-11.664-11.995-11.664h-41.006c-5.175 0-9.754 3.328-11.388 8.238-8.89 26.709-26.073 40.992-47.925 40.992s-39.034-14.283-47.925-40.992c-1.634-4.91-6.213-8.238-11.388-8.238h-41.005c-6.495 0-11.813 5.174-11.995 11.667-1.052 37.642-2.934 57.539-31.688 57.539-20.691 0-33.817-20.224-44.425-38.025-3.266-5.48-10.258-7.431-15.899-4.453l-39.179 20.679a12 12 0 0 0-5.51 15.145L112 448h288l105.014-257.448a12 12 0 0 0-5.51-15.145l-39.357-20.773z"
     id="path5181"
     style="fill:#ffffff" />
</svg>
