<?xml version="1.0" encoding="UTF-8" standalone="no"?>
<svg
   xmlns:dc="http://purl.org/dc/elements/1.1/"
   xmlns:cc="http://creativecommons.org/ns#"
   xmlns:rdf="http://www.w3.org/1999/02/22-rdf-syntax-ns#"
   xmlns:svg="http://www.w3.org/2000/svg"
   xmlns="http://www.w3.org/2000/svg"
   xmlns:sodipodi="http://sodipodi.sourceforge.net/DTD/sodipodi-0.dtd"
   xmlns:inkscape="http://www.inkscape.org/namespaces/inkscape"
   aria-hidden="true"
   focusable="false"
   data-prefix="fas"
   data-icon="chess-rook"
   class="svg-inline--fa fa-chess-rook fa-w-12"
   role="img"
   viewBox="0 0 384 512"
   version="1.1"
   id="svg5203"
   sodipodi:docname="wR.svg"
   inkscape:version="0.92.4 (5da689c313, 2019-01-14)">
  <metadata
     id="metadata5209">
    <rdf:RDF>
      <cc:Work
         rdf:about="">
        <dc:format>image/svg+xml</dc:format>
        <dc:type
           rdf:resource="http://purl.org/dc/dcmitype/StillImage" />
        <dc:title></dc:title>
      </cc:Work>
    </rdf:RDF>
  </metadata>
  <defs
     id="defs5207" />
  <sodipodi:namedview
     pagecolor="#ffffff"
     bordercolor="#666666"
     borderopacity="1"
     objecttolerance="10"
     gridtolerance="10"
     guidetolerance="10"
     inkscape:pageopacity="0"
     inkscape:pageshadow="2"
     inkscape:window-width="640"
     inkscape:window-height="480"
     id="namedview5205"
     showgrid="false"
     inkscape:zoom="0.4609375"
     inkscape:cx="192"
     inkscape:cy="256"
     inkscape:window-x="0"
     inkscape:window-y="0"
     inkscape:window-maximized="0"
     inkscape:current-layer="svg5203" />
  <path
     fill="currentColor"
     d="M81.241 215.027C80.957 258.92 77.411 348.076 48 448h287.982c-29.4-99.604-32.936-188.912-33.221-232.975l45.418-42.312a11.998 11.998 0 0 0 3.82-8.78V44c0-6.627-5.373-12-12-12h-40c-6.627 0-12 5.373-12 12v44h-48V44c0-6.627-5.373-12-12-12h-72c-6.627 0-12 5.373-12 12v44H96V44c0-6.627-5.373-12-12-12H44c-6.627 0-12 5.373-12 12v119.932c0 3.33 1.384 6.51 3.82 8.78l45.421 42.315zM160 256c0-17.673 14.327-32 32-32 17.673 0 32 14.327 32 32v64.004h-64V256zm224 220v24c0 6.627-5.373 12-12 12H12c-6.627 0-12-5.373-12-12v-24c0-6.627 5.373-12 12-12h360c6.627 0 12 5.373 12 12z"
     id="path5201"
     style="fill:#ffffff" />
</svg>
